<?xml version="1.0" encoding="utf-8"?>
<!-- Generator: Adobe Illustrator 25.4.8, SVG Export Plug-In . SVG Version: 6.00 Build 0)  -->
<svg version="1.1" id="Layer_1" xmlns="http://www.w3.org/2000/svg" xmlns:xlink="http://www.w3.org/1999/xlink" x="0px" y="0px"
	 viewBox="0 0 262.5 72.7" style="enable-background:new 0 0 262.5 72.7;" xml:space="preserve">
<style type="text/css">
	.st0{fill:#28231C;}
</style>
<path class="st0" d="M21.7,24h3.1v21.6h10.4v2.6H21.7V24z"/>
<path class="st0" d="M44.1,24v14.4c0,5.4,2.4,7.7,5.7,7.7c3.5,0,5.9-2.4,5.9-7.7V24h3.2v14.2c0,7.4-3.9,10.5-9.2,10.5
	c-5,0-8.7-2.8-8.7-10.4V24H44.1z"/>
<path class="st0" d="M67.8,48.2V24h3.5l7.8,12.3c1.6,2.5,3.1,5.2,4.4,7.9h0.1c-0.3-3.2-0.4-6.2-0.4-10V24h3v24.3H83l-7.7-12.4
	c-1.7-2.6-3.2-5.3-4.5-8.1h-0.1c0.2,3.1,0.2,6,0.2,10v10.4L67.8,48.2z"/>
<path class="st0" d="M107.8,36.9h-9.4v8.7h10.5v2.6H95.2V24h13.1v2.6h-10v7.6h9.4V36.9z"/>
<path class="st0" d="M116.5,24h13.1v2.6h-9.9v8.1h9.2v2.6h-9.2v11h-3.1V24z"/>
<path class="st0" d="M140.8,24v14.4c0,5.4,2.4,7.7,5.7,7.7c3.5,0,5.9-2.4,5.9-7.7V24h3.2v14.2c0,7.4-3.9,10.5-9.2,10.5
	c-5,0-8.7-2.8-8.7-10.4V24H140.8z"/>
<path class="st0" d="M164.5,24h3.1v21.6h10.4v2.6h-13.5V24z"/>
<path class="st0" d="M185.1,24.3c2.2-0.3,4.4-0.5,6.7-0.5c4.5,0,7.7,1,9.8,3c2.4,2.3,3.6,5.4,3.4,8.7c0.2,3.5-1.1,6.9-3.5,9.4
	c-2.3,2.3-6,3.5-10.7,3.5c-1.9,0-3.8-0.1-5.7-0.3L185.1,24.3z M188.3,45.8c1,0.1,2.1,0.2,3.2,0.2c6.7,0,10.3-3.8,10.3-10.3
	c0-5.7-3.2-9.4-9.8-9.4c-1.2,0-2.5,0.1-3.7,0.3V45.8z"/>
<path class="st0" d="M238,61.5h2v1.4h-5.8v-2.3c0-0.4,0.1-0.8,0.2-1.2c0.2-0.3,0.4-0.6,0.7-0.8c0.3-0.2,0.6-0.3,1-0.3
	c0.5,0,1,0.2,1.4,0.6c0.4,0.5,0.5,1.1,0.5,1.7L238,61.5z M236.9,61.5v-0.9c0-0.2-0.1-0.4-0.2-0.6c-0.2-0.1-0.4-0.2-0.6-0.2
	c-0.2,0-0.5,0.1-0.6,0.2c-0.2,0.2-0.3,0.4-0.2,0.6v0.9L236.9,61.5z"/>
<path class="st0" d="M238.9,54.5v-2.4h1.1v3.8h-5.8v-1.4L238.9,54.5z"/>
<path class="st0" d="M238.9,46.5v1.9l1.1,0.3v1.5l-5.8-2.1v-1.3l5.8-2.1v1.5L238.9,46.5z M237.8,48.1v-1.2l-2,0.6L237.8,48.1z"/>
<path class="st0" d="M237.8,40.6l0.6,0.6h1.6v1.4h-5.8v-1.4h2.6l-0.7-0.5l-1.8-1.2v-1.7l2.6,2l3.2-2v1.7L237.8,40.6z"/>
<path class="st0" d="M238.9,32.5v1.9l1.1,0.3v1.5l-5.8-2.1v-1.3l5.8-2.1v1.5L238.9,32.5z M237.8,34v-1.2l-2,0.6L237.8,34z"/>
<path class="st0" d="M235.2,24.5v1.7h4.8v1.4h-4.7v1.7h-1.1v-4.8H235.2z"/>
<path class="st0" d="M237.5,18.7v2.2h1.4v-2.6h1.1v4h-5.8v-4h1.1v2.6h1.2v-2.2H237.5z"/>
<path class="st0" d="M237.9,13.9v0.8h2.1v1.4h-5.8v-2.3c0-0.6,0.1-1.1,0.4-1.6c0.3-0.4,0.8-0.6,1.3-0.6c0.3,0,0.7,0.1,1,0.2
	c0.3,0.2,0.5,0.5,0.6,0.8l2.3-1.2h0.1v1.5L237.9,13.9z M236.8,14.7v-0.9c0-0.2-0.1-0.4-0.2-0.6c-0.2-0.2-0.4-0.2-0.6-0.2
	c-0.2,0-0.4,0.1-0.6,0.2c-0.2,0.2-0.2,0.4-0.2,0.6v0.9L236.8,14.7z"/>
<path class="st0" d="M249.2,49.3v1.3h0.9v-1.6h0.6v2.4h-3.5v-2.4h0.7v1.6h0.7v-1.3H249.2z"/>
<path class="st0" d="M249.8,45.9c-0.1,0-0.2,0-0.3,0.1c-0.1,0.1-0.2,0.3-0.2,0.5c-0.1,0.2-0.1,0.4-0.2,0.5c-0.1,0.4-0.5,0.7-0.9,0.7
	c-0.2,0-0.4-0.1-0.5-0.2c-0.2-0.1-0.3-0.3-0.4-0.5c-0.1-0.2-0.1-0.5-0.1-0.7c0-0.2,0-0.5,0.1-0.7c0.1-0.2,0.2-0.4,0.4-0.5
	c0.2-0.1,0.4-0.2,0.6-0.2v0.8c-0.1,0-0.3,0-0.3,0.1c-0.1,0.1-0.1,0.2-0.1,0.3c0,0.1,0,0.3,0.1,0.4c0.1,0.1,0.3,0.2,0.4,0.1
	c0,0,0.1-0.1,0.1-0.1c0.1-0.2,0.2-0.3,0.2-0.5c0.1-0.2,0.2-0.4,0.3-0.6c0.2-0.4,0.5-0.6,0.9-0.6c0.3,0,0.6,0.1,0.7,0.3
	c0.2,0.3,0.3,0.6,0.3,1c0,0.3,0,0.5-0.2,0.8c-0.1,0.2-0.2,0.4-0.4,0.5c-0.2,0.1-0.4,0.2-0.6,0.2V47c0.2,0,0.3,0,0.4-0.2
	c0.1-0.1,0.2-0.3,0.1-0.5c0-0.1,0-0.2-0.1-0.3C250,46,249.9,45.9,249.8,45.9z"/>
<path class="st0" d="M247.9,40.9v1.1h2.9v0.9h-2.9v1h-0.7v-3L247.9,40.9z"/>
<path class="st0" d="M250.7,35v2.5h-0.5l-1.2-1.1c-0.2-0.2-0.5-0.4-0.8-0.4c-0.1,0-0.3,0-0.4,0.1c-0.1,0.1-0.1,0.2-0.1,0.3
	c0,0.1,0.1,0.2,0.2,0.3c0.1,0.1,0.3,0.1,0.4,0.1v0.8c-0.2,0-0.4-0.1-0.6-0.2c-0.2-0.1-0.3-0.3-0.4-0.5c-0.1-0.2-0.2-0.4-0.1-0.7
	c0-0.3,0.1-0.6,0.3-0.9c0.2-0.2,0.5-0.3,0.8-0.3c0.1,0,0.3,0,0.4,0.1c0.1,0.1,0.3,0.1,0.4,0.2c0.2,0.2,0.4,0.3,0.6,0.5l0.5,0.5V35
	H250.7z"/>
<path class="st0" d="M249.3,31.2c0.4,0,0.8,0.1,1.1,0.3c0.5,0.5,0.5,1.3,0,1.8c0,0,0,0,0,0c-0.3,0.2-0.7,0.3-1.1,0.3h-0.6
	c-0.4,0-0.8-0.1-1.1-0.3c-0.3-0.2-0.4-0.6-0.4-0.9c0-0.3,0.1-0.7,0.4-0.9c0.3-0.2,0.7-0.3,1.1-0.3L249.3,31.2z M248.6,32
	c-0.2,0-0.4,0-0.6,0.1c-0.2,0.1-0.2,0.3-0.1,0.5c0,0.1,0.1,0.1,0.1,0.1c0.2,0.1,0.3,0.1,0.5,0.1h0.9c0.2,0,0.4,0,0.6-0.1
	c0.1-0.1,0.2-0.2,0.2-0.3c0-0.1-0.1-0.3-0.2-0.3c-0.2-0.1-0.4-0.1-0.6-0.1L248.6,32z"/>
<path class="st0" d="M250.7,27.3v2.5h-0.5l-1.2-1.1c-0.2-0.2-0.5-0.4-0.8-0.4c-0.1,0-0.3,0-0.4,0.1c-0.2,0.1-0.2,0.4-0.1,0.5
	c0,0,0,0,0.1,0.1c0.1,0.1,0.3,0.1,0.4,0.1v0.8c-0.2,0-0.4-0.1-0.6-0.2c-0.2-0.1-0.3-0.3-0.4-0.5c-0.2-0.5-0.2-1.1,0.1-1.5
	c0.2-0.2,0.5-0.3,0.8-0.3c0.1,0,0.3,0,0.4,0.1c0.1,0.1,0.3,0.1,0.4,0.2c0.2,0.2,0.4,0.3,0.6,0.5l0.5,0.5v-1.4H250.7z"/>
<path class="st0" d="M249.3,23.4c0.4,0,0.8,0.1,1.1,0.3c0.3,0.2,0.4,0.6,0.4,0.9c0,0.3-0.1,0.7-0.4,0.9c-0.3,0.2-0.7,0.3-1.1,0.3
	h-0.6c-0.4,0-0.8-0.1-1.1-0.3c-0.5-0.5-0.5-1.3,0-1.8c0,0,0,0,0,0c0.3-0.2,0.7-0.4,1.1-0.3H249.3z M248.6,24.2c-0.2,0-0.4,0-0.6,0.1
	c-0.1,0.1-0.2,0.2-0.2,0.3c0,0.1,0.1,0.3,0.2,0.3c0.2,0.1,0.3,0.1,0.5,0.1h0.9c0.2,0,0.4,0,0.6-0.1c0.1-0.1,0.2-0.2,0.2-0.3
	c0-0.1-0.1-0.3-0.2-0.3c-0.2-0.1-0.4-0.1-0.6-0.1L248.6,24.2z"/>
<path class="st0" d="M222.7,72.7H0V0h222.7V72.7z M3.4,69.2h215.9V3.4H3.4V69.2z"/>
<polygon class="st0" points="210.7,0 210.7,3.4 259.1,3.4 259.1,69.2 210.7,69.2 210.7,72.7 262.5,72.7 262.5,0 "/>
</svg>
